# xmcd
#
# Track frame offsets: 
#        150
#        21067
#        42275
#        64474
#        84107
#        98966
#        117971
#        147256
#        166533
#        180074
#        201534
#        218191
#
# Disc length: 3178 seconds
#
# Revision: 3
# Processed by: cddbd v1.5.2PL0 Copyright (c) Steve Scherf et al.
# Submitted via: ExactAudioCopy v1.0b3
#
DISCID=9c0c680c
DTITLE=T-Bone Walker and Eddie "Cleanhead" Vinson - Blues Collective
DYEAR=1969
DGENRE=Blues
TTITLE0=Eddie "Cleanhead" Vinson - Jumpin' The Blues
TTITLE1=Eddie "Cleanhead" Vinson - Wee Baby Blues
TTITLE2=Eddie "Cleanhead" Vinson - I Had a Dream
TTITLE3=Eddie "Cleanhead" Vinson - Old Man Boogie
TTITLE4=Eddie "Cleanhead" Vinson - Flying Home
TTITLE5=T-Bone Walker Quintet - Woman
TTITLE6=T-Bone Walker Quintet - Everyday I Have the Blues
TTITLE7=T-Bone Walker Quintet - Why You Treat Me
TTITLE8=T-Bone Walker Quintet - You Don't Love Me
TTITLE9=T-Bone Walker Quintet - Stormy Monday Blues
TTITLE10=T-Bone Walker Quintet - Shake It Baby
TTITLE11=T-Bone Walker Quintet - They Now
EXTD=
EXTT0=
EXTT1=
EXTT2=
EXTT3=
EXTT4=
EXTT5=
EXTT6=
EXTT7=
EXTT8=
EXTT9=
EXTT10=
EXTT11=
PLAYORDER=
